# Blender v2.74 (sub 0) OBJ File: ''
# www.blender.org
mtllib plane.mtl
o plane
v -302.973511 3.221730 302.981506
v -301.643524 3.221734 301.651489
v -301.651459 3.221973 -301.643524
v 350.004608 -32.075703 349.995392
v 348.254578 -32.075703 348.245422
v -349.995392 -32.075794 350.004608
v 349.995392 -32.075424 -350.004608
v 348.245422 -32.075424 -348.254578
v -350.004608 -32.075516 -349.995392
v -348.254578 -32.075516 -348.245422
v -348.245422 -32.075794 348.254578
v 340.204498 -32.075699 340.195526
v 340.195526 -32.075428 -340.204468
v -340.204468 -32.075516 -340.195526
v -340.195526 -32.075790 340.204468
v 340.204468 2.924299 340.195526
v 338.629456 2.924303 338.620544
v -338.620544 2.924216 338.629456
v 340.195526 2.924574 -340.204468
v 338.620544 2.924570 -338.629456
v -340.204468 2.924482 -340.195526
v -338.629456 2.924478 -338.620544
v -340.195526 2.924212 340.204468
v 338.331940 3.221804 338.323059
v 335.601929 3.221804 335.593079
v -335.593079 3.221717 335.601929
v 338.323059 3.222067 -338.331940
v 335.593079 3.222066 -335.601898
v -338.331940 3.221979 -338.323029
v -335.601898 3.221978 -335.593079
v -335.295593 2.924216 335.304413
v 335.304413 2.924304 335.295593
v 303.278992 2.924313 303.271027
v -303.270996 2.924233 303.278992
v 335.295593 2.924566 -335.304413
v 303.271027 2.924553 -303.278992
v -335.304413 2.924478 -335.295593
v -303.278992 2.924473 -303.270996
v 302.973511 3.222053 -302.981476
v 301.643524 3.222053 -301.651459
v 301.651459 3.221810 301.643524
v -302.981476 3.221973 -302.973511
v -301.353973 2.924472 -301.346039
v -301.346039 2.924233 301.353973
v -349.995392 2.924206 350.004608
v -348.245422 2.924206 348.254578
v 348.254578 2.924298 348.245422
v 350.004608 2.924298 349.995392
v 348.245422 2.924575 -348.254578
v 349.995392 2.924576 -350.004608
v -348.254578 2.924484 -348.245422
v -350.004608 2.924484 -349.995392
v 350.004608 2.377774 349.995392
v -349.995392 2.377682 350.004608
v 349.995392 2.378052 -350.004608
v -350.004608 1.271293 -349.995392
v -349.995392 1.271015 350.004608
v 350.004608 1.271107 349.995392
v 349.995392 1.271385 -350.004608
v -350.004608 2.377960 -349.995392
v 302.981476 3.221810 302.973511
v 301.353973 2.924313 301.346039
v 301.346039 2.924552 -301.353973
v -338.323059 3.221716 338.331970
v -226.008530 2.924241 301.352966
v -226.009521 2.924272 226.015472
v -301.347015 2.924261 226.016464
v -226.010513 2.924303 150.677979
v -301.348022 2.924292 150.678970
v -150.672028 2.924280 226.014481
v -150.673019 2.924315 150.676987
v -150.671036 2.924252 301.351990
v -226.011505 2.924331 75.340477
v -301.348999 2.924323 75.341469
v -226.012497 2.924362 0.002980
v -301.350006 2.924351 0.003971
v -150.674011 2.924342 75.339485
v -150.675003 2.924370 0.001988
v -75.335518 2.924322 150.675995
v -75.336502 2.924354 75.338493
v -75.337494 2.924381 0.000997
v 0.000992 2.924361 75.337502
v 0.000001 2.924393 0.000006
v 0.001984 2.924334 150.675003
v -75.333534 2.924263 301.350983
v -75.334526 2.924291 226.013489
v 0.002975 2.924299 226.012512
v 0.003966 2.924271 301.350006
v -226.013489 2.924390 -75.334518
v -226.014481 2.924421 -150.672028
v -301.351990 2.924410 -150.671036
v -150.675995 2.924401 -75.335510
v -150.676987 2.924429 -150.673019
v -226.015472 2.924452 -226.009521
v -301.352966 2.924445 -226.008530
v -226.016464 2.924480 -301.347015
v -150.677979 2.924464 -226.010513
v -150.678955 2.924491 -301.348022
v -75.339478 2.924440 -150.674011
v -75.340469 2.924471 -226.011505
v -75.341461 2.924503 -301.348999
v -0.002973 2.924483 -226.012497
v -0.003964 2.924510 -301.350006
v -0.001982 2.924448 -150.674988
v -75.338486 2.924409 -75.336502
v -0.000990 2.924420 -75.337494
v 75.337502 2.924400 -0.000986
v 75.336510 2.924432 -75.338486
v 75.335518 2.924459 -150.675980
v 150.674011 2.924439 -75.339478
v 150.673019 2.924471 -150.676971
v 150.675003 2.924412 -0.001977
v 75.334526 2.924490 -226.013489
v 75.333534 2.924522 -301.350983
v 150.672028 2.924502 -226.014481
v 150.671036 2.924530 -301.351990
v 226.010513 2.924478 -150.677963
v 226.009521 2.924513 -226.015472
v 226.008545 2.924541 -301.352966
v 301.347015 2.924521 -226.016464
v 301.346039 2.924552 -301.353973
v 301.348022 2.924490 -150.678955
v 226.012497 2.924419 -0.002969
v 226.011505 2.924451 -75.340469
v 301.348999 2.924458 -75.341461
v 301.350006 2.924431 -0.003960
v 75.341469 2.924283 301.348999
v 75.340477 2.924310 226.011520
v 75.339485 2.924341 150.674011
v 150.677979 2.924322 226.010529
v 150.676987 2.924353 150.673019
v 150.678970 2.924290 301.348022
v 75.338493 2.924373 75.336517
v 150.675995 2.924381 75.335526
v 226.014481 2.924364 150.672028
v 226.013489 2.924392 75.334534
v 301.350983 2.924403 75.333542
v 301.351990 2.924372 150.671036
v 226.016464 2.924302 301.347015
v 226.015472 2.924329 226.009537
v 301.352966 2.924341 226.008545
v 301.353973 2.924313 301.346039
v -301.346039 2.924233 301.353973
v -301.350983 2.924382 -75.333527
v -301.353973 2.924472 -301.346039
vn -0.000000 1.000000 0.000000
vn -0.000000 0.707100 -0.707100
vn 0.707200 0.707100 -0.000000
vn 0.707100 0.707200 -0.000000
vn -0.000000 -1.000000 -0.000000
vn -0.000000 0.000000 -1.000000
vn -1.000000 0.000000 0.000000
vn 0.000000 0.000000 1.000000
vn 1.000000 0.000000 -0.000000
vn -0.707100 0.707100 0.000000
vn -0.707000 0.707200 0.000000
vn 0.000000 0.707100 0.707100
vn 0.707000 0.707200 -0.000000
vn 0.707200 0.707000 -0.000000
vn 0.707100 0.707100 -0.000000
vn -0.707200 0.707100 0.000000
usemtl None
s 1
f 1//1 2//1 3//1
f 4//1 5//1 6//1
f 7//1 8//1 4//1
f 9//1 10//1 7//1
f 6//1 11//1 10//1
f 5//1 12//1 11//1
f 8//1 13//1 12//1
f 10//1 14//1 8//1
f 11//1 15//1 14//1
f 16//1 17//1 18//1
f 19//1 20//1 17//1
f 21//1 22//1 19//1
f 23//1 18//1 22//1
f 24//1 25//1 26//1
f 27//1 28//1 25//1
f 29//1 30//1 28//1
f 31//2 26//2 25//2
f 32//1 33//1 34//1
f 35//1 36//1 33//1
f 37//1 38//1 35//1
f 31//1 34//1 38//1
f 39//1 40//1 41//1
f 42//1 3//1 40//1
f 43//3 3//3 44//4
f 45//5 46//5 47//5
f 48//5 47//5 49//5
f 50//5 49//5 51//5
f 52//5 51//5 46//5
f 46//5 23//5 16//5
f 47//5 16//5 19//5
f 49//5 19//5 51//5
f 51//5 21//5 23//5
f 48//6 53//6 54//6
f 50//7 55//7 53//7
f 56//8 9//8 7//8
f 57//9 6//9 9//9
f 23//8 15//8 12//8
f 16//9 12//9 19//9
f 19//6 13//6 14//6
f 21//7 14//7 15//7
f 53//6 58//6 57//6
f 55//7 59//7 58//7
f 55//8 50//8 52//8
f 60//9 52//9 45//9
f 59//8 55//8 60//8
f 56//9 60//9 54//9
f 58//6 4//6 6//6
f 59//7 7//7 4//7
f 2//1 1//1 61//1
f 34//10 1//10 38//11
f 44//2 2//2 41//2
f 1//12 34//12 33//12
f 62//10 41//10 63//10
f 36//13 39//13 61//13
f 63//12 40//12 43//12
f 38//2 42//2 36//2
f 64//1 26//1 29//1
f 17//12 24//12 64//12
f 32//10 25//10 28//10
f 20//14 27//14 17//15
f 35//12 28//12 37//12
f 22//2 29//2 20//2
f 37//3 30//3 26//4
f 18//10 64//10 22//16
f 65//1 66//1 67//1
f 66//1 68//1 69//1
f 70//1 71//1 68//1
f 72//1 70//1 65//1
f 68//1 73//1 74//1
f 73//1 75//1 76//1
f 77//1 78//1 75//1
f 71//1 77//1 73//1
f 79//1 80//1 77//1
f 80//1 81//1 78//1
f 82//1 83//1 80//1
f 84//1 82//1 80//1
f 85//1 86//1 70//1
f 86//1 79//1 71//1
f 87//1 84//1 86//1
f 88//1 87//1 86//1
f 75//1 89//1 76//1
f 89//1 90//1 91//1
f 92//1 93//1 90//1
f 78//1 92//1 75//1
f 90//1 94//1 95//1
f 94//1 96//1 95//1
f 97//1 98//1 96//1
f 93//1 97//1 94//1
f 99//1 100//1 97//1
f 100//1 101//1 98//1
f 102//1 103//1 101//1
f 104//1 102//1 100//1
f 81//1 105//1 92//1
f 105//1 99//1 92//1
f 106//1 104//1 99//1
f 83//1 106//1 105//1
f 107//1 108//1 106//1
f 108//1 109//1 104//1
f 110//1 111//1 108//1
f 112//1 110//1 108//1
f 109//1 113//1 102//1
f 113//1 114//1 103//1
f 115//1 116//1 114//1
f 111//1 115//1 113//1
f 117//1 118//1 115//1
f 118//1 119//1 116//1
f 120//1 121//1 119//1
f 122//1 120//1 118//1
f 123//1 124//1 112//1
f 124//1 117//1 111//1
f 125//1 122//1 117//1
f 126//1 125//1 124//1
f 127//1 128//1 87//1
f 128//1 129//1 84//1
f 130//1 131//1 129//1
f 132//1 130//1 128//1
f 129//1 133//1 82//1
f 133//1 107//1 83//1
f 134//1 112//1 133//1
f 131//1 134//1 129//1
f 135//1 136//1 134//1
f 136//1 123//1 134//1
f 137//1 126//1 123//1
f 138//1 137//1 136//1
f 139//1 140//1 130//1
f 140//1 135//1 131//1
f 141//1 138//1 135//1
f 142//1 141//1 140//1
f 42//1 1//1 3//1
f 26//1 30//1 29//1
f 40//12 3//12 43//12
f 8//1 5//1 4//1
f 9//1 6//1 10//1
f 5//1 11//1 6//1
f 5//1 8//1 12//1
f 12//1 15//1 11//1
f 10//1 11//1 14//1
f 23//1 16//1 18//1
f 16//1 19//1 17//1
f 10//1 8//1 7//1
f 21//1 23//1 22//1
f 64//1 24//1 26//1
f 24//1 27//1 25//1
f 27//1 29//1 28//1
f 32//2 31//2 25//2
f 31//1 32//1 34//1
f 32//1 35//1 33//1
f 64//10 29//16 22//16
f 37//1 31//1 38//1
f 61//1 39//1 41//1
f 39//1 42//1 40//1
f 41//10 40//10 63//10
f 48//5 45//5 47//5
f 50//5 48//5 49//5
f 52//5 50//5 51//5
f 45//5 52//5 46//5
f 47//5 46//5 16//5
f 49//5 47//5 19//5
f 14//1 13//1 8//1
f 46//5 51//5 23//5
f 45//6 48//6 54//6
f 48//7 50//7 53//7
f 59//8 56//8 7//8
f 56//9 57//9 9//9
f 16//8 23//8 12//8
f 92//1 89//1 75//1
f 21//6 19//6 14//6
f 23//7 21//7 15//7
f 54//6 53//6 57//6
f 53//7 55//7 58//7
f 60//8 55//8 52//8
f 54//9 60//9 45//9
f 56//8 59//8 60//8
f 57//9 56//9 54//9
f 57//6 58//6 6//6
f 58//7 59//7 4//7
f 41//1 2//1 61//1
f 3//3 2//4 44//4
f 62//2 44//2 41//2
f 61//12 1//12 33//12
f 38//1 36//1 35//1
f 33//13 36//13 61//13
f 29//2 27//2 20//2
f 22//1 20//1 19//1
f 18//12 17//12 64//12
f 35//10 32//10 28//10
f 124//1 110//1 112//1
f 42//2 39//2 36//2
f 28//12 30//12 37//12
f 31//4 37//3 26//4
f 19//5 21//5 51//5
f 143//1 65//1 67//1
f 67//1 66//1 69//1
f 66//1 70//1 68//1
f 123//1 112//1 134//1
f 69//1 68//1 74//1
f 74//1 73//1 76//1
f 73//1 77//1 75//1
f 68//1 71//1 73//1
f 71//1 79//1 77//1
f 77//1 80//1 78//1
f 70//1 66//1 65//1
f 79//1 84//1 80//1
f 72//1 85//1 70//1
f 70//1 86//1 71//1
f 27//14 24//15 17//15
f 85//1 88//1 86//1
f 12//9 13//9 19//9
f 144//1 89//1 91//1
f 89//1 92//1 90//1
f 83//1 81//1 80//1
f 91//1 90//1 95//1
f 134//1 133//1 129//1
f 94//1 97//1 96//1
f 90//1 93//1 94//1
f 93//1 99//1 97//1
f 97//1 100//1 98//1
f 100//1 102//1 101//1
f 99//1 104//1 100//1
f 78//1 81//1 92//1
f 96//1 145//1 95//1
f 105//1 106//1 99//1
f 81//1 83//1 105//1
f 83//1 107//1 106//1
f 106//1 108//1 104//1
f 112//1 107//1 133//1
f 107//1 112//1 108//1
f 104//1 109//1 102//1
f 102//1 113//1 103//1
f 113//1 115//1 114//1
f 109//1 111//1 113//1
f 111//1 117//1 115//1
f 115//1 118//1 116//1
f 118//1 120//1 119//1
f 117//1 122//1 118//1
f 89//1 144//1 76//1
f 110//1 124//1 111//1
f 124//1 125//1 117//1
f 123//1 126//1 124//1
f 88//1 127//1 87//1
f 87//1 128//1 84//1
f 128//1 130//1 129//1
f 127//1 132//1 128//1
f 84//1 129//1 82//1
f 82//1 133//1 83//1
f 1//10 42//11 38//11
f 111//1 109//1 108//1
f 131//1 135//1 134//1
f 99//1 93//1 92//1
f 136//1 137//1 123//1
f 135//1 138//1 136//1
f 132//1 139//1 130//1
f 130//1 140//1 131//1
f 140//1 141//1 135//1
f 139//1 142//1 140//1
f 84//1 79//1 86//1
