# Blender v2.74 (sub 0) OBJ File: ''
# www.blender.org
mtllib plane.mtl
o Chess_Board1_Board
v -302.973511 3.221768 302.981506
v -301.643524 3.221772 301.651489
v -301.651459 3.221912 -301.643524
v -302.981476 3.221912 -302.973511
v 350.004608 -32.075657 349.995392
v 348.254578 -32.075657 348.245422
v -348.245422 -32.075748 348.254578
v -349.995392 -32.075748 350.004608
v 349.995392 -32.075493 -350.004608
v 348.245422 -32.075493 -348.254578
v -350.004608 -32.075584 -349.995392
v -348.254578 -32.075584 -348.245422
v 340.204498 -32.075657 340.195526
v -340.195526 -32.075745 340.204468
v 340.195526 -32.075493 -340.204468
v -340.204468 -32.075584 -340.195526
v 340.204468 2.924345 340.195526
v 338.629456 2.924345 338.620544
v -338.620544 2.924258 338.629456
v -340.195526 2.924257 340.204468
v 340.195526 2.924505 -340.204468
v 338.620544 2.924505 -338.629456
v -340.204468 2.924414 -340.195526
v -338.629456 2.924413 -338.620544
v 338.331940 3.221846 338.323059
v 335.601929 3.221846 335.593079
v -335.593079 3.221759 335.601929
v -338.323059 3.221758 338.331970
v 338.323059 3.222002 -338.331940
v 335.593079 3.222001 -335.601898
v -338.331940 3.221914 -338.323029
v -335.601898 3.221914 -335.593079
v -335.295593 2.924258 335.304413
v 335.304413 2.924346 335.295593
v 303.278992 2.924351 303.271027
v -303.270996 2.924271 303.278992
v 335.295593 2.924501 -335.304413
v 303.271027 2.924492 -303.278992
v -335.304413 2.924413 -335.295593
v -303.278992 2.924412 -303.270996
v 302.973511 3.221992 -302.981476
v 301.643524 3.221992 -301.651459
v 301.651459 3.221848 301.643524
v 302.981476 3.221848 302.973511
v -301.353973 2.924411 -301.346039
v -301.346039 2.924271 301.353973
v -349.995392 2.924252 350.004608
v -348.245422 2.924252 348.254578
v 348.254578 2.924344 348.245422
v 350.004608 2.924343 349.995392
v 348.245422 2.924507 -348.254578
v 349.995392 2.924507 -350.004608
v -348.254578 2.924415 -348.245422
v -350.004608 2.924415 -349.995392
v 350.004608 2.377819 349.995392
v -349.995392 2.377728 350.004608
v 349.995392 2.377983 -350.004608
v -350.004608 1.271225 -349.995392
v 349.995392 1.271316 -350.004608
v -349.995392 1.271061 350.004608
v 350.004608 1.271153 349.995392
v -350.004608 2.377891 -349.995392
v 301.353973 2.924351 301.346039
v 301.346039 2.924491 -301.353973
v -226.008530 2.924279 301.352966
v -226.009521 2.924299 226.015472
v -301.347015 2.924287 226.016464
v -301.346039 2.924271 301.353973
v -226.010513 2.924315 150.677979
v -301.348022 2.924303 150.678970
v -150.672028 2.924306 226.014481
v -150.673019 2.924326 150.676987
v -150.671036 2.924290 301.351990
v -226.011505 2.924331 75.340469
v -301.348999 2.924323 75.341461
v -226.012497 2.924351 0.002976
v -301.350006 2.924339 0.003967
v -150.674011 2.924342 75.339478
v -150.675003 2.924358 0.001984
v -75.335518 2.924334 150.675995
v -75.336502 2.924354 75.338486
v -75.337494 2.924370 0.000993
v 0.000991 2.924361 75.337494
v -0.000000 2.924381 0.000002
v 0.001983 2.924345 150.675003
v -75.333534 2.924302 301.350983
v -75.334526 2.924318 226.013489
v 0.002974 2.924325 226.012512
v 0.003965 2.924309 301.350006
v -226.013489 2.924367 -75.334526
v -301.350983 2.924359 -75.333534
v -226.014481 2.924387 -150.672028
v -301.351990 2.924375 -150.671036
v -150.675995 2.924378 -75.335518
v -150.676987 2.924394 -150.673019
v -226.015472 2.924403 -226.009521
v -301.352966 2.924395 -226.008530
v -226.016464 2.924419 -301.347015
v -301.353973 2.924411 -301.346039
v -150.677979 2.924414 -226.010513
v -150.678955 2.924430 -301.348022
v -75.339478 2.924406 -150.674011
v -75.340469 2.924422 -226.011505
v -75.341461 2.924442 -301.348999
v -0.002974 2.924433 -226.012497
v -0.003965 2.924449 -301.350006
v -0.001983 2.924413 -150.674988
v -75.338486 2.924386 -75.336510
v -0.000991 2.924397 -75.337502
v 75.337502 2.924389 -0.000990
v 75.336510 2.924409 -75.338493
v 75.335518 2.924425 -150.675980
v 150.674011 2.924416 -75.339485
v 150.673019 2.924436 -150.676971
v 150.675003 2.924400 -0.001981
v 75.334526 2.924441 -226.013489
v 75.333534 2.924461 -301.350983
v 150.672028 2.924452 -226.014481
v 150.671036 2.924469 -301.351990
v 226.010513 2.924444 -150.677963
v 226.009521 2.924464 -226.015472
v 226.008545 2.924480 -301.352966
v 301.347015 2.924471 -226.016464
v 301.346039 2.924491 -301.353973
v 301.348022 2.924455 -150.678955
v 226.012497 2.924408 -0.002973
v 226.011505 2.924428 -75.340477
v 301.348999 2.924435 -75.341469
v 301.350006 2.924419 -0.003964
v 75.341469 2.924321 301.348999
v 75.340477 2.924337 226.011520
v 75.339485 2.924353 150.674011
v 150.677979 2.924348 226.010529
v 150.676987 2.924364 150.673019
v 150.678970 2.924328 301.348022
v 75.338493 2.924373 75.336510
v 150.675995 2.924381 75.335518
v 226.014481 2.924376 150.672028
v 226.013489 2.924392 75.334526
v 301.350983 2.924403 75.333534
v 301.351990 2.924383 150.671036
v 226.016464 2.924340 301.347015
v 226.015472 2.924356 226.009537
v 301.352966 2.924367 226.008545
v 301.353973 2.924351 301.346039
vt 0.612824 0.388026
vt 0.607333 0.053403
vt 0.613063 0.059309
vt 0.520545 0.518858
vt 0.509725 0.042483
vt 0.518858 0.031903
vt 0.033590 0.520521
vt 0.509964 0.509725
vt 0.031904 0.033567
vt 0.042722 0.509941
vt 0.042485 0.042700
vt 0.528771 0.526553
vt 0.526552 0.023677
vt 0.025896 0.528747
vt 0.023678 0.025873
vt 0.992463 0.437780
vt 0.552589 0.448238
vt 0.560127 0.440758
vt 0.992393 0.008044
vt 0.999861 0.445216
vt 0.561746 0.007628
vt 0.999860 0.000648
vt 0.554360 0.000139
vt 0.977871 0.423452
vt 0.567942 0.432918
vt 0.575197 0.425845
vt 0.978032 0.022600
vt 0.984895 0.430667
vt 0.575744 0.021872
vt 0.985255 0.015594
vt 0.970798 0.416797
vt 0.952561 0.397960
vt 0.581912 0.418709
vt 0.600836 0.400380
vt 0.952534 0.047838
vt 0.601122 0.047538
vt 0.971359 0.029667
vt 0.582846 0.028585
vt 0.940842 0.059707
vt 0.946387 0.392147
vt 0.940890 0.386676
vt 0.946705 0.054008
vt 0.618277 0.382228
vt 0.469077 0.081503
vt 0.462779 0.461809
vt 0.461811 0.089667
vt 0.470942 0.469076
vt 0.090638 0.462758
vt 0.083371 0.470920
vt 0.089670 0.090616
vt 0.081507 0.083350
vt 0.455471 0.096068
vt 0.456378 0.455469
vt 0.096977 0.456356
vt 0.096072 0.096956
vt 0.479755 0.476266
vt 0.476267 0.072691
vt 0.076181 0.479732
vt 0.069147 0.486976
vt 0.065450 0.069124
vt 0.552310 0.552286
vt 0.000163 0.552284
vt 0.000139 0.000140
vt 0.552284 0.000139
vt 0.486999 0.483301
vt 0.483302 0.065447
vt 0.072694 0.076159
vt 0.606696 0.394164
vt 0.935133 0.381256
vt 0.935549 0.064990
vt 0.568703 0.014607
vt 0.345632 0.601922
vt 0.345632 0.552566
vt 0.394988 0.552565
vt 0.296276 0.601922
vt 0.296276 0.552566
vt 0.296277 0.651278
vt 0.345633 0.651278
vt 0.394988 0.601921
vt 0.246920 0.601923
vt 0.246920 0.552567
vt 0.197564 0.601924
vt 0.197564 0.552567
vt 0.197565 0.651280
vt 0.246921 0.651279
vt 0.246922 0.700635
vt 0.197566 0.700636
vt 0.197566 0.749992
vt 0.246922 0.749991
vt 0.296278 0.700634
vt 0.394990 0.700633
vt 0.345634 0.700634
vt 0.296278 0.749990
vt 0.345634 0.749990
vt 0.148208 0.601924
vt 0.148208 0.552568
vt 0.098852 0.601925
vt 0.098852 0.552569
vt 0.098853 0.651281
vt 0.148209 0.651280
vt 0.049496 0.601926
vt 0.049496 0.552570
vt 0.000140 0.601926
vt 0.000139 0.552570
vt 0.000141 0.651282
vt 0.049497 0.651282
vt 0.049497 0.700638
vt 0.000141 0.700638
vt 0.000142 0.749994
vt 0.049498 0.749994
vt 0.098853 0.700637
vt 0.148210 0.700636
vt 0.098854 0.749993
vt 0.148210 0.749992
vt 0.148211 0.799348
vt 0.098855 0.799349
vt 0.098855 0.848705
vt 0.148211 0.848704
vt 0.197567 0.799348
vt 0.049499 0.799350
vt 0.000143 0.799350
vt 0.049499 0.848706
vt 0.000143 0.848706
vt 0.049500 0.898062
vt 0.000144 0.898062
vt 0.000145 0.947419
vt 0.049501 0.947418
vt 0.098856 0.898061
vt 0.148212 0.898061
vt 0.197568 0.848704
vt 0.098857 0.947417
vt 0.148213 0.947416
vt 0.197568 0.898060
vt 0.345635 0.799346
vt 0.394990 0.749989
vt 0.296279 0.799346
vt 0.296280 0.848702
vt 0.394992 0.848701
vt 0.345636 0.848702
vt 0.246923 0.799347
vt 0.246924 0.848703
vt 0.246924 0.898059
vt 0.246925 0.947415
vt 0.197569 0.947416
vt 0.296280 0.898059
vt 0.345636 0.898058
vt 0.296281 0.947414
vt 0.345637 0.947414
vt 0.394992 0.898057
vt 0.618990 0.065234
vt 0.394989 0.651277
vt 0.394991 0.799345
vt 0.394993 0.947413
vn 0.000000 -1.000000 -0.000000
vn 0.000000 -0.707100 0.707100
vn -0.707100 -0.707200 0.000000
vn -0.000000 1.000000 -0.000000
vn 0.000000 0.000000 1.000000
vn 1.000000 0.000000 -0.000000
vn -0.000000 0.000000 -1.000000
vn -1.000000 0.000000 0.000000
vn 0.707000 -0.707200 -0.000000
vn -0.000000 -0.707100 -0.707100
vn 0.707100 -0.707100 -0.000000
vn -0.707000 -0.707200 0.000000
vn -0.707100 -0.707100 0.000000
vn -0.707200 -0.707100 0.000000
vn 0.707100 -0.707200 -0.000000
vn -0.707200 -0.707000 0.000000
vn 0.707200 -0.707000 -0.000000
usemtl Material.001
s off
f 2/1/1 4/2/1 3/3/1
f 6/4/1 8/5/1 7/6/1
f 10/7/1 5/8/1 6/4/1
f 12/9/1 9/10/1 10/7/1
f 7/6/1 11/11/1 12/9/1
f 13/12/1 7/6/1 14/13/1
f 15/14/1 6/4/1 13/12/1
f 16/15/1 10/7/1 15/14/1
f 14/13/1 12/9/1 16/15/1
f 18/16/1 20/17/1 19/18/1
f 22/19/1 17/20/1 18/16/1
f 24/21/1 21/22/1 22/19/1
f 19/18/1 23/23/1 24/21/1
f 26/24/1 28/25/1 27/26/1
f 30/27/1 25/28/1 26/24/1
f 32/29/1 29/30/1 30/27/1
f 27/26/2 34/31/2 26/24/2
f 35/32/1 33/33/1 36/34/1
f 38/35/1 34/31/1 35/32/1
f 40/36/1 37/37/1 38/35/1
f 36/34/1 39/38/1 40/36/1
f 42/39/1 44/40/1 43/41/1
f 3/3/1 41/42/1 42/39/1
f 3/3/3 46/43/3 2/1/3
f 47/44/4 49/45/4 48/46/4
f 50/47/4 51/48/4 49/45/4
f 52/49/4 53/50/4 51/48/4
f 54/51/4 48/46/4 53/50/4
f 20/52/4 49/45/4 17/53/4
f 17/53/4 51/48/4 21/54/4
f 21/54/4 53/50/4 23/55/4
f 23/55/4 48/46/4 20/52/4
f 55/56/5 47/44/5 56/57/5
f 57/58/6 50/47/6 55/56/6
f 11/11/7 59/59/7 9/10/7
f 8/5/8 58/60/8 11/11/8
f 14/13/7 17/61/7 13/12/7
f 13/12/8 21/62/8 15/14/8
f 15/14/5 23/63/5 16/15/5
f 16/15/6 20/64/6 14/13/6
f 61/65/5 56/57/5 60/66/5
f 59/59/6 55/56/6 61/65/6
f 52/49/7 62/67/7 54/51/7
f 54/51/8 56/57/8 47/44/8
f 57/58/7 58/60/7 62/67/7
f 62/67/8 60/66/8 56/57/8
f 5/8/5 60/66/5 8/5/5
f 9/10/6 61/65/6 5/8/6
f 44/40/1 2/1/1 43/41/1
f 1/68/9 40/36/9 4/2/9
f 2/1/2 63/69/2 43/41/2
f 44/40/10 36/34/10 1/68/10
f 43/41/11 64/70/11 42/39/11
f 41/42/12 35/32/12 44/40/12
f 64/70/10 3/3/10 42/39/10
f 4/2/2 38/35/2 41/42/2
f 27/26/1 31/71/1 32/29/1
f 25/28/10 19/18/10 28/25/10
f 26/24/11 37/37/11 30/27/11
f 29/30/13 18/16/13 25/28/13
f 30/27/10 39/38/10 32/29/10
f 31/71/2 22/19/2 29/30/2
f 32/29/13 33/33/13 27/26/13
f 19/18/11 31/71/11 28/25/11
f 66/72/4 67/73/4 68/74/4
f 69/75/4 70/76/4 67/73/4
f 72/77/4 69/75/4 66/72/4
f 71/78/4 66/72/4 65/79/4
f 74/80/4 75/81/4 70/76/4
f 76/82/4 77/83/4 75/81/4
f 79/84/4 76/82/4 74/80/4
f 78/85/4 74/80/4 69/75/4
f 81/86/4 78/85/4 72/77/4
f 82/87/4 79/84/4 78/85/4
f 84/88/4 82/87/4 81/86/4
f 83/89/4 81/86/4 80/90/4
f 86/91/4 87/92/4 71/78/4
f 80/90/4 72/77/4 71/78/4
f 85/93/4 80/90/4 87/92/4
f 88/94/4 87/92/4 86/91/4
f 76/82/4 90/95/4 91/96/4
f 92/97/4 93/98/4 91/96/4
f 95/99/4 92/97/4 90/95/4
f 94/100/4 90/95/4 76/82/4
f 96/101/4 97/102/4 93/98/4
f 98/103/4 99/104/4 97/102/4
f 101/105/4 98/103/4 96/101/4
f 100/106/4 96/101/4 92/97/4
f 103/107/4 100/106/4 95/99/4
f 104/108/4 101/105/4 100/106/4
f 106/109/4 104/108/4 103/107/4
f 105/110/4 103/107/4 102/111/4
f 108/112/4 94/100/4 79/84/4
f 102/111/4 95/99/4 94/100/4
f 107/113/4 102/111/4 108/112/4
f 109/114/4 108/112/4 82/87/4
f 111/115/4 109/114/4 84/88/4
f 112/116/4 107/113/4 109/114/4
f 114/117/4 112/116/4 111/115/4
f 113/118/4 111/115/4 110/119/4
f 116/120/4 105/110/4 107/113/4
f 117/121/4 106/109/4 105/110/4
f 118/122/4 119/123/4 117/121/4
f 118/122/4 116/120/4 112/116/4
f 121/124/4 118/122/4 114/117/4
f 122/125/4 119/123/4 118/122/4
f 124/126/4 122/125/4 121/124/4
f 123/127/4 121/124/4 120/128/4
f 127/129/4 113/118/4 115/130/4
f 120/128/4 114/117/4 113/118/4
f 125/131/4 120/128/4 127/129/4
f 128/132/4 127/129/4 126/133/4
f 131/134/4 88/94/4 89/135/4
f 132/136/4 85/93/4 88/94/4
f 134/137/4 132/136/4 131/134/4
f 135/138/4 133/139/4 131/134/4
f 136/140/4 83/89/4 85/93/4
f 110/119/4 84/88/4 83/89/4
f 115/130/4 110/119/4 136/140/4
f 137/141/4 136/140/4 132/136/4
f 139/142/4 137/141/4 134/137/4
f 126/133/4 115/130/4 137/141/4
f 140/143/4 129/144/4 126/133/4
f 140/143/4 139/142/4 138/145/4
f 143/146/4 133/139/4 135/138/4
f 138/145/4 134/137/4 133/139/4
f 141/147/4 138/145/4 143/146/4
f 144/148/4 143/146/4 142/149/4
f 1/68/1 4/2/1 2/1/1
f 5/8/1 8/5/1 6/4/1
f 9/10/1 5/8/1 10/7/1
f 11/11/1 9/10/1 12/9/1
f 8/5/1 11/11/1 7/6/1
f 6/4/1 7/6/1 13/12/1
f 10/7/1 6/4/1 15/14/1
f 12/9/1 10/7/1 16/15/1
f 7/6/1 12/9/1 14/13/1
f 17/20/1 20/17/1 18/16/1
f 21/22/1 17/20/1 22/19/1
f 23/23/1 21/22/1 24/21/1
f 20/17/1 23/23/1 19/18/1
f 25/28/1 28/25/1 26/24/1
f 29/30/1 25/28/1 30/27/1
f 31/71/1 29/30/1 32/29/1
f 33/33/2 34/31/2 27/26/2
f 34/31/1 33/33/1 35/32/1
f 37/37/1 34/31/1 38/35/1
f 39/38/1 37/37/1 40/36/1
f 33/33/1 39/38/1 36/34/1
f 41/42/1 44/40/1 42/39/1
f 4/2/1 41/42/1 3/3/1
f 45/150/14 46/43/14 3/3/14
f 50/47/4 49/45/4 47/44/4
f 52/49/4 51/48/4 50/47/4
f 54/51/4 53/50/4 52/49/4
f 47/44/4 48/46/4 54/51/4
f 48/46/4 49/45/4 20/52/4
f 49/45/4 51/48/4 17/53/4
f 51/48/4 53/50/4 21/54/4
f 53/50/4 48/46/4 23/55/4
f 50/47/5 47/44/5 55/56/5
f 52/49/6 50/47/6 57/58/6
f 58/60/7 59/59/7 11/11/7
f 60/66/8 58/60/8 8/5/8
f 20/64/7 17/61/7 14/13/7
f 17/61/8 21/62/8 13/12/8
f 21/62/5 23/63/5 15/14/5
f 23/63/6 20/64/6 16/15/6
f 55/56/5 56/57/5 61/65/5
f 57/58/6 55/56/6 59/59/6
f 57/58/7 62/67/7 52/49/7
f 62/67/8 56/57/8 54/51/8
f 59/59/7 58/60/7 57/58/7
f 58/60/8 60/66/8 62/67/8
f 61/65/5 60/66/5 5/8/5
f 59/59/6 61/65/6 9/10/6
f 1/68/1 2/1/1 44/40/1
f 36/34/11 40/36/11 1/68/11
f 46/43/2 63/69/2 2/1/2
f 35/32/10 36/34/10 44/40/10
f 63/69/11 64/70/11 43/41/11
f 38/35/12 35/32/12 41/42/12
f 45/150/10 3/3/10 64/70/10
f 40/36/2 38/35/2 4/2/2
f 28/25/1 31/71/1 27/26/1
f 18/16/10 19/18/10 25/28/10
f 34/31/15 37/37/15 26/24/15
f 22/19/16 18/16/16 29/30/16
f 37/37/10 39/38/10 30/27/10
f 24/21/2 22/19/2 31/71/2
f 39/38/13 33/33/13 32/29/13
f 24/21/17 31/71/17 19/18/17
f 65/79/4 66/72/4 68/74/4
f 66/72/4 69/75/4 67/73/4
f 71/78/4 72/77/4 66/72/4
f 73/151/4 71/78/4 65/79/4
f 69/75/4 74/80/4 70/76/4
f 74/80/4 76/82/4 75/81/4
f 78/85/4 79/84/4 74/80/4
f 72/77/4 78/85/4 69/75/4
f 80/90/4 81/86/4 72/77/4
f 81/86/4 82/87/4 78/85/4
f 83/89/4 84/88/4 81/86/4
f 85/93/4 83/89/4 80/90/4
f 73/151/4 86/91/4 71/78/4
f 87/92/4 80/90/4 71/78/4
f 88/94/4 85/93/4 87/92/4
f 89/135/4 88/94/4 86/91/4
f 77/83/4 76/82/4 91/96/4
f 90/95/4 92/97/4 91/96/4
f 94/100/4 95/99/4 90/95/4
f 79/84/4 94/100/4 76/82/4
f 92/97/4 96/101/4 93/98/4
f 96/101/4 98/103/4 97/102/4
f 100/106/4 101/105/4 96/101/4
f 95/99/4 100/106/4 92/97/4
f 102/111/4 103/107/4 95/99/4
f 103/107/4 104/108/4 100/106/4
f 105/110/4 106/109/4 103/107/4
f 107/113/4 105/110/4 102/111/4
f 82/87/4 108/112/4 79/84/4
f 108/112/4 102/111/4 94/100/4
f 109/114/4 107/113/4 108/112/4
f 84/88/4 109/114/4 82/87/4
f 110/119/4 111/115/4 84/88/4
f 111/115/4 112/116/4 109/114/4
f 113/118/4 114/117/4 111/115/4
f 115/130/4 113/118/4 110/119/4
f 112/116/4 116/120/4 107/113/4
f 116/120/4 117/121/4 105/110/4
f 116/120/4 118/122/4 117/121/4
f 114/117/4 118/122/4 112/116/4
f 120/128/4 121/124/4 114/117/4
f 121/124/4 122/125/4 118/122/4
f 123/127/4 124/126/4 121/124/4
f 125/131/4 123/127/4 120/128/4
f 126/133/4 127/129/4 115/130/4
f 127/129/4 120/128/4 113/118/4
f 128/132/4 125/131/4 127/129/4
f 129/144/4 128/132/4 126/133/4
f 130/152/4 131/134/4 89/135/4
f 131/134/4 132/136/4 88/94/4
f 133/139/4 134/137/4 131/134/4
f 130/152/4 135/138/4 131/134/4
f 132/136/4 136/140/4 85/93/4
f 136/140/4 110/119/4 83/89/4
f 137/141/4 115/130/4 136/140/4
f 134/137/4 137/141/4 132/136/4
f 138/145/4 139/142/4 134/137/4
f 139/142/4 126/133/4 137/141/4
f 139/142/4 140/143/4 126/133/4
f 141/147/4 140/143/4 138/145/4
f 142/149/4 143/146/4 135/138/4
f 143/146/4 138/145/4 133/139/4
f 144/148/4 141/147/4 143/146/4
f 145/153/4 144/148/4 142/149/4
